<?xml version="1.0" encoding="utf-8"?>
<!-- Generator: Adobe Illustrator 16.2.1, SVG Export Plug-In . SVG Version: 6.00 Build 0)  -->
<!DOCTYPE svg PUBLIC "-//W3C//DTD SVG 1.1//EN" "http://www.w3.org/Graphics/SVG/1.1/DTD/svg11.dtd">
<svg version="1.1" id="Layer_1" xmlns="http://www.w3.org/2000/svg" xmlns:xlink="http://www.w3.org/1999/xlink" x="0px" y="0px"
	 width="36px" height="11.701px" viewBox="0 0 36 11.701" enable-background="new 0 0 36 11.701" xml:space="preserve">
<path fill="#D62128" stroke="#D62128" stroke-miterlimit="10" d="M35.404,5.614c0,2.742-2.225,4.967-4.967,4.967H5.562
	c-2.743,0-4.966-2.225-4.966-4.967l0,0c0-2.743,2.223-4.966,4.966-4.966h24.875C33.18,0.647,35.404,2.871,35.404,5.614L35.404,5.614
	z"/>
<g>
	<path fill="#FFFFFF" d="M3.404,2.702h1.77v4.316h2.762v1.41H3.404V2.702z"/>
	<path fill="#FFFFFF" d="M8.439,6.366c0-0.633,0.213-1.154,0.641-1.564c0.427-0.41,1.004-0.615,1.73-0.615
		c0.831,0,1.458,0.241,1.883,0.723c0.341,0.388,0.512,0.866,0.512,1.434c0,0.638-0.212,1.161-0.635,1.568s-1.009,0.611-1.756,0.611
		c-0.667,0-1.206-0.169-1.617-0.508C8.691,7.595,8.439,7.046,8.439,6.366z M10.033,6.362c0,0.37,0.075,0.643,0.225,0.82
		s0.338,0.266,0.564,0.266c0.229,0,0.417-0.087,0.564-0.262s0.221-0.455,0.221-0.84c0-0.359-0.074-0.627-0.223-0.803
		S11.052,5.28,10.833,5.28c-0.231,0-0.423,0.089-0.574,0.268S10.033,5.998,10.033,6.362z"/>
	<path fill="#FFFFFF" d="M16.857,4.28h1.488v3.918l0.004,0.184c0,0.26-0.056,0.508-0.166,0.744s-0.258,0.426-0.441,0.572
		s-0.417,0.251-0.699,0.316s-0.606,0.098-0.971,0.098c-0.833,0-1.405-0.125-1.717-0.375s-0.467-0.584-0.467-1.004
		c0-0.052,0.003-0.123,0.008-0.211l1.543,0.176c0.039,0.143,0.099,0.242,0.18,0.297c0.117,0.081,0.265,0.121,0.441,0.121
		c0.229,0,0.4-0.061,0.514-0.184s0.17-0.336,0.17-0.641V7.663c-0.156,0.185-0.312,0.319-0.469,0.402
		c-0.245,0.13-0.509,0.195-0.793,0.195c-0.555,0-1.003-0.242-1.344-0.727c-0.242-0.344-0.363-0.798-0.363-1.363
		c0-0.646,0.156-1.138,0.469-1.477s0.722-0.508,1.227-0.508c0.323,0,0.589,0.055,0.799,0.164s0.405,0.291,0.588,0.543V4.28z
		 M15.361,6.292c0,0.299,0.063,0.521,0.191,0.666s0.296,0.217,0.504,0.217c0.198,0,0.364-0.075,0.498-0.225s0.201-0.375,0.201-0.678
		s-0.07-0.533-0.211-0.693s-0.312-0.24-0.516-0.24s-0.365,0.074-0.486,0.221S15.361,5.951,15.361,6.292z"/>
	<path fill="#FFFFFF" d="M19.111,6.366c0-0.633,0.214-1.154,0.641-1.564s1.004-0.615,1.73-0.615c0.831,0,1.458,0.241,1.883,0.723
		c0.341,0.388,0.512,0.866,0.512,1.434c0,0.638-0.212,1.161-0.635,1.568s-1.009,0.611-1.756,0.611c-0.667,0-1.206-0.169-1.617-0.508
		C19.364,7.595,19.111,7.046,19.111,6.366z M20.705,6.362c0,0.37,0.075,0.643,0.225,0.82s0.338,0.266,0.564,0.266
		c0.229,0,0.417-0.087,0.564-0.262s0.221-0.455,0.221-0.84c0-0.359-0.074-0.627-0.223-0.803S21.725,5.28,21.506,5.28
		c-0.231,0-0.423,0.089-0.574,0.268S20.705,5.998,20.705,6.362z"/>
	<path fill="#FFFFFF" d="M29.014,8.429h-1.484V7.757c-0.222,0.276-0.444,0.473-0.67,0.59s-0.502,0.176-0.83,0.176
		c-0.438,0-0.78-0.131-1.029-0.393s-0.373-0.665-0.373-1.209V4.28h1.598v2.281c0,0.26,0.048,0.445,0.145,0.555
		s0.231,0.164,0.406,0.164c0.19,0,0.346-0.073,0.467-0.219s0.182-0.408,0.182-0.785V4.28h1.59V8.429z"/>
	<path fill="#FFFFFF" d="M31.896,2.702V4.28h0.875v1.164h-0.875v1.47c0,0.177,0.017,0.294,0.051,0.351
		c0.052,0.089,0.144,0.133,0.273,0.133c0.117,0,0.281-0.034,0.492-0.102l0.117,1.098c-0.394,0.086-0.761,0.129-1.102,0.129
		c-0.396,0-0.688-0.051-0.875-0.152c-0.188-0.101-0.326-0.255-0.416-0.462c-0.09-0.207-0.135-0.542-0.135-1.005V5.444h-0.586V4.28
		h0.586V3.519L31.896,2.702z"/>
</g>
</svg>
