<?xml version="1.0" encoding="utf-8"?>
<!-- Generator: Adobe Illustrator 16.2.1, SVG Export Plug-In . SVG Version: 6.00 Build 0)  -->
<!DOCTYPE svg PUBLIC "-//W3C//DTD SVG 1.1//EN" "http://www.w3.org/Graphics/SVG/1.1/DTD/svg11.dtd">
<svg version="1.1" id="Layer_1" xmlns="http://www.w3.org/2000/svg" xmlns:xlink="http://www.w3.org/1999/xlink" x="0px" y="0px"
	 width="36px" height="13.987px" viewBox="0 0 36 13.987" enable-background="new 0 0 36 13.987" xml:space="preserve">
<polygon fill="#3399CC" points="36.044,14.203 0.035,14.203 -0.073,0 35.936,0 "/>
<g>
	<path fill="#FFFFFF" d="M3.279,9.221c0.253,0.165,0.693,0.297,1.067,0.297c0.771,0,1.232-0.506,1.232-1.254
		c0-0.682-0.396-1.101-0.979-1.541c-0.583-0.407-1.397-1.1-1.397-2.057c0-1.122,0.781-1.947,1.958-1.947
		c0.462,0,0.869,0.143,1.045,0.275L5.997,3.72C5.81,3.588,5.501,3.467,5.117,3.467c-0.726,0-1.067,0.55-1.067,1.056
		c0,0.737,0.385,1.023,1.089,1.529C6.03,6.679,6.426,7.361,6.426,8.187c0,1.276-0.902,2.079-2.08,2.079
		c-0.506,0-1.045-0.165-1.254-0.319L3.279,9.221z"/>
	<path fill="#FFFFFF" d="M8.548,3.5C8.559,3.83,8.35,4.05,8.031,4.05c-0.275,0-0.484-0.22-0.484-0.55c0-0.33,0.22-0.55,0.495-0.55
		C8.35,2.95,8.548,3.17,8.548,3.5z M7.635,10.2V4.875h0.847V10.2H7.635z"/>
	<path fill="#FFFFFF" d="M13.168,4.875c-0.011,0.374-0.044,0.847-0.044,1.661v2.981c0,1.397-0.176,1.925-0.528,2.311
		c-0.319,0.363-0.825,0.572-1.419,0.572c-0.451,0-0.891-0.11-1.167-0.264l0.198-0.66c0.209,0.11,0.561,0.231,0.99,0.231
		c0.671,0,1.089-0.418,1.089-1.628V9.54h-0.022c-0.187,0.418-0.572,0.649-1.023,0.649c-0.946,0-1.562-1.067-1.562-2.629
		c0-1.958,0.891-2.772,1.672-2.772c0.572,0,0.836,0.374,0.99,0.693h0.022l0.044-0.605H13.168z M12.288,6.712
		c0-0.132-0.011-0.275-0.044-0.385c-0.099-0.363-0.286-0.814-0.77-0.814c-0.616,0-0.946,0.825-0.946,2.002
		c0,1.364,0.429,1.98,0.946,1.98c0.253,0,0.583-0.121,0.759-0.759c0.044-0.165,0.055-0.33,0.055-0.484V6.712z"/>
	<path fill="#FFFFFF" d="M14.554,6.25c0-0.627-0.033-0.946-0.044-1.375h0.737l0.044,0.638h0.022c0.231-0.429,0.66-0.726,1.221-0.726
		c0.737,0,1.287,0.55,1.287,1.837V10.2h-0.847V6.767c0-0.627-0.121-1.265-0.737-1.265c-0.352,0-0.693,0.297-0.803,0.869
		c-0.022,0.132-0.033,0.297-0.033,0.473V10.2h-0.847V6.25z"/>
	<path fill="#FFFFFF" d="M25.202,6.437c0,2.784-0.957,3.851-2.146,3.851C21.824,10.288,21,8.979,21,6.481
		c0-2.453,0.88-3.784,2.178-3.784C24.443,2.697,25.202,4.072,25.202,6.437z M21.88,6.492c0,1.529,0.297,3.047,1.231,3.047
		c0.958,0,1.211-1.617,1.211-3.069c0-1.386-0.253-3.025-1.222-3.025C22.177,3.445,21.88,4.985,21.88,6.492z"/>
	<path fill="#FFFFFF" d="M29.679,8.748c0,0.594,0.033,1.056,0.044,1.452h-0.736l-0.056-0.561h-0.021
		c-0.165,0.264-0.572,0.649-1.145,0.649c-0.935,0-1.298-0.726-1.298-2.046V4.875h0.847v3.246c0,0.836,0.132,1.452,0.716,1.452
		c0.494,0,0.715-0.462,0.759-0.704c0.033-0.143,0.044-0.308,0.044-0.484V4.875h0.847V8.748z"/>
	<path fill="#FFFFFF" d="M32.153,3.467v1.408h1.023v0.649h-1.023v3.158c0,0.693,0.253,0.88,0.562,0.88
		c0.132,0,0.242-0.011,0.341-0.033l0.033,0.649c-0.154,0.055-0.353,0.088-0.627,0.088c-0.33,0-0.627-0.088-0.836-0.319
		c-0.209-0.242-0.319-0.605-0.319-1.342V5.524h-0.649V4.875h0.649V3.709L32.153,3.467z"/>
</g>
</svg>
