<?xml version="1.0" encoding="utf-8"?>
<!-- Generator: Adobe Illustrator 16.2.1, SVG Export Plug-In . SVG Version: 6.00 Build 0)  -->
<!DOCTYPE svg PUBLIC "-//W3C//DTD SVG 1.1//EN" "http://www.w3.org/Graphics/SVG/1.1/DTD/svg11.dtd">
<svg version="1.1" id="Layer_1" xmlns="http://www.w3.org/2000/svg" xmlns:xlink="http://www.w3.org/1999/xlink" x="0px" y="0px"
	 width="14.016px" height="14.059px" viewBox="0 0 14.016 14.059" enable-background="new 0 0 14.016 14.059" xml:space="preserve">
<g>
	<g>
		<path fill="#D62128" d="M10.176,8.632c-0.806,0-1.18-0.029-1.324,0.115C8.679,8.92,8.708,9.294,8.708,10.102v1.958
			c0,1.296,0.145,1.871-1.67,1.871c-1.814,0-1.67-0.575-1.67-1.871v-1.958c0-0.807,0.058-1.21-0.115-1.354S4.706,8.632,3.899,8.632
			H1.941c-1.296,0-1.872,0.144-1.872-1.67s0.576-1.67,1.872-1.67h1.958c0.806,0,1.18,0.029,1.353-0.144
			C5.396,5.004,5.368,4.63,5.368,3.824V1.866c0-1.296-0.144-1.872,1.67-1.872c1.814,0,1.67,0.576,1.67,1.872v1.958
			c0,0.807,0,1.152,0.145,1.325c0.144,0.173,0.518,0.144,1.324,0.144h1.958c1.296,0,1.871-0.144,1.871,1.67s-0.575,1.67-1.871,1.67
			H10.176z"/>
	</g>
</g>
</svg>
